<?xml version="1.0" encoding="utf-8"?>
<!-- Generator: Adobe Illustrator 23.1.0, SVG Export Plug-In . SVG Version: 6.00 Build 0)  -->
<svg version="1.1" id="圖層_1" xmlns="http://www.w3.org/2000/svg" xmlns:xlink="http://www.w3.org/1999/xlink" x="0px" y="0px"
	 viewBox="0 0 1076.37 179.14" style="enable-background:new 0 0 1076.37 179.14;" xml:space="preserve">
<style type="text/css">
	.st0{fill:#060001;}
</style>
<g>
	<path class="st0" d="M69.64,2.43c16.61,0,30.53,5.45,41.75,16.35c11.22,10.9,16.83,24.15,16.83,39.74
		c0,15.6-5.61,28.83-16.83,39.68c-11.22,10.86-25.14,16.29-41.75,16.29h-42.3v62.23H0V2.43H69.64z M27.35,27.35v62.23h42.3
		c8.59,0,15.92-2.98,22-8.93c6.08-5.96,9.12-13.33,9.12-22.12s-3.04-16.18-9.12-22.18c-6.08-6-13.41-8.99-22-8.99H27.35z"/>
	<path class="st0" d="M270,2.43h27.35l72.19,174.28h-28.56l-18.72-46.06h-77.18l-18.72,46.06h-28.56L270,2.43z M255.05,105.74h57.24
		l-28.56-72.19L255.05,105.74z"/>
	<path class="st0" d="M455.42,27.35V2.43h125.67v24.91L484.1,151.8h99.54v24.92H451.65V151.8l97.11-124.45H455.42z"/>
	<path class="st0" d="M676.93,27.35V2.43H802.6v24.91L705.61,151.8h99.54v24.92H673.16V151.8l97.11-124.45H676.93z"/>
	<path class="st0" d="M918.73,26.01C936.4,8.67,958.25,0,984.3,0c26.05,0,47.91,8.67,65.57,26.01c17.66,17.34,26.5,38.53,26.5,63.56
		c0,25.04-8.83,46.22-26.5,63.56c-17.66,17.34-39.52,26.01-65.57,26.01c-26.05,0-47.91-8.67-65.57-26.01
		c-17.66-17.34-26.5-38.53-26.5-63.56C892.24,64.54,901.07,43.35,918.73,26.01z M938.36,135.51c12.52,12.56,27.83,18.84,45.94,18.84
		c18.11,0,33.42-6.28,45.94-18.84c12.52-12.56,18.78-27.87,18.78-45.94c0-18.07-6.26-33.36-18.78-45.88
		c-12.52-12.52-27.83-18.78-45.94-18.78c-18.11,0-33.42,6.26-45.94,18.78c-12.52,12.52-18.78,27.81-18.78,45.88
		C919.58,107.64,925.84,122.95,938.36,135.51z"/>
</g>
</svg>
